<?xml version="1.0"?>
<svg xmlns="http://www.w3.org/2000/svg" xmlns:xlink="http://www.w3.org/1999/xlink" version="1.1" id="Capa_1" x="0px" y="0px" viewBox="0 0 469.333 469.333" style="enable-background:new 0 0 469.333 469.333;" xml:space="preserve" width="512px" height="512px" class=""><g><g>
	<g>
		<path d="M426.667,0h-192C228.771,0,224,4.771,224,10.667v65.385c-3.458-0.917-7.042-1.385-10.667-1.385    c-23.521,0-42.667,19.135-42.667,42.667S189.812,160,213.333,160c3.625,0,7.208-0.469,10.667-1.385V224h-82.979    c-4.208,0-8.042,2.49-9.75,6.344c-1.708,3.854-1,8.354,1.833,11.479c3.583,3.958,5.563,9,5.563,14.177    c0,11.76-9.563,21.333-21.333,21.333C105.562,277.333,96,267.76,96,256c0-5.177,1.979-10.219,5.563-14.177    c2.833-3.125,3.542-7.625,1.833-11.479c-1.708-3.854-5.542-6.344-9.75-6.344H10.667C4.771,224,0,228.771,0,234.667v192    c0,23.531,19.146,42.667,42.667,42.667h384c23.521,0,42.667-19.135,42.667-42.667v-384C469.333,19.135,450.188,0,426.667,0z     M230.333,355.281c-3.854,1.719-6.333,5.542-6.333,9.75V448H42.667c-11.771,0-21.333-9.573-21.333-21.333V245.333h54.708    c-0.896,3.458-1.375,7.042-1.375,10.667c0,23.531,19.146,42.667,42.667,42.667C140.854,298.667,160,279.531,160,256    c0-3.625-0.479-7.208-1.375-10.667H224v72.302c0,4.208,2.479,8.031,6.333,9.75c3.875,1.708,8.354,1,11.479-1.823    C245.792,321.979,250.833,320,256,320c11.771,0,21.333,9.573,21.333,21.333s-9.563,21.333-21.333,21.333    c-5.167,0-10.208-1.979-14.188-5.563C238.687,354.281,234.187,353.583,230.333,355.281z M448,426.667    c0,11.76-9.563,21.333-21.333,21.333H245.333v-65.385C248.792,383.531,252.375,384,256,384c23.521,0,42.667-19.135,42.667-42.667    S279.521,298.667,256,298.667c-3.625,0-7.208,0.469-10.667,1.385v-54.719h76.042C320.479,248.792,320,252.375,320,256    c0,23.531,19.146,42.667,42.667,42.667c23.521,0,42.667-19.135,42.667-42.667c0-3.625-0.479-7.208-1.375-10.667H448V426.667z     M448,224h-61.646c-4.208,0-8.042,2.49-9.75,6.344c-1.708,3.854-1,8.354,1.833,11.479c3.583,3.958,5.563,9,5.563,14.177    c0,11.76-9.563,21.333-21.333,21.333c-11.771,0-21.333-9.573-21.333-21.333c0-5.177,1.979-10.219,5.563-14.177    c2.833-3.125,3.542-7.625,1.833-11.479c-1.708-3.854-5.542-6.344-9.75-6.344h-93.646v-82.969c0-4.208-2.479-8.031-6.333-9.75    c-3.875-1.677-8.333-0.99-11.479,1.823c-3.979,3.583-9.021,5.563-14.188,5.563c-11.771,0-21.333-9.573-21.333-21.333    C192,105.573,201.562,96,213.333,96c5.167,0,10.208,1.979,14.188,5.563c3.125,2.823,7.604,3.521,11.479,1.823    c3.854-1.719,6.333-5.542,6.333-9.75V21.333h181.333c11.771,0,21.333,9.573,21.333,21.333V224z" data-original="#000000" class="active-path" data-old_color="#f667aa" fill="#f667aa"/>
	</g>
</g></g> </svg>
