<?xml version="1.0"?>
<svg xmlns="http://www.w3.org/2000/svg" xmlns:xlink="http://www.w3.org/1999/xlink" version="1.1" id="Capa_1" x="0px" y="0px" viewBox="0 0 512 512" style="enable-background:new 0 0 512 512;" xml:space="preserve" width="512px" height="512px" class=""><g><g>
	<g>
		<g>
			<path d="M256,192c35.292,0,64-28.708,64-64s-28.708-64-64-64s-64,28.708-64,64S220.708,192,256,192z M256,85.333     c23.531,0,42.667,19.135,42.667,42.667S279.531,170.667,256,170.667S213.333,151.531,213.333,128S232.469,85.333,256,85.333z" data-original="#000000" class="active-path" data-old_color="#86afe1" fill="#86afe1"/>
			<path d="M405.333,320c-35.292,0-64,28.708-64,64c0,35.292,28.708,64,64,64c35.292,0,64-28.708,64-64     C469.333,348.708,440.625,320,405.333,320z M405.333,426.667c-23.531,0-42.667-19.135-42.667-42.667s19.135-42.667,42.667-42.667     S448,360.469,448,384S428.865,426.667,405.333,426.667z" data-original="#000000" class="active-path" data-old_color="#86afe1" fill="#86afe1"/>
			<path d="M106.667,320c-35.292,0-64,28.708-64,64c0,35.292,28.708,64,64,64c35.292,0,64-28.708,64-64     C170.667,348.708,141.958,320,106.667,320z M106.667,426.667C83.135,426.667,64,407.531,64,384s19.135-42.667,42.667-42.667     s42.667,19.135,42.667,42.667S130.198,426.667,106.667,426.667z" data-original="#000000" class="active-path" data-old_color="#86afe1" fill="#86afe1"/>
			<path d="M256,224c-41.167,0-74.667,33.5-74.667,74.667c0,41.167,33.5,74.667,74.667,74.667s74.667-33.5,74.667-74.667     C330.667,257.5,297.167,224,256,224z M256,352c-29.406,0-53.333-23.927-53.333-53.333s23.927-53.333,53.333-53.333     s53.333,23.927,53.333,53.333S285.406,352,256,352z" data-original="#000000" class="active-path" data-old_color="#86afe1" fill="#86afe1"/>
			<path d="M404.552,275.115c-19.865-0.615-37.896-13.25-50.792-35.563c-11.667-20.208-12.094-44.292-1.146-64.438     c0.76-1.406,1.354-2.906,1.771-4.479c6.229-14.021,9.396-28.583,9.396-43.302c0-59.438-47.344-106-107.781-106     s-107.781,46.563-107.781,106c0,14.667,3.146,29.177,9.333,43.146c0.427,1.615,1.042,3.167,1.844,4.656     c10.938,20.135,10.5,44.208-1.156,64.417c-12.938,22.406-30.958,35.042-50.458,35.563C48.354,275.115,0,323.458,0,382.885     c0,59.427,48.354,107.781,107.781,107.781c35.844,0,69.135-17.833,89.24-47.75c0.844-0.958,1.594-1.969,2.208-2.99     c11.74-19.146,33.49-31.042,56.771-31.042s45.031,11.896,56.74,31c0.646,1.052,1.375,2.052,2.198,2.969     c20.094,29.958,53.406,47.813,89.281,47.813c59.427,0,107.781-48.354,107.781-107.781     C512,323.594,463.813,275.281,404.552,275.115z M404.219,469.333c-29,0-55.906-14.583-73.26-40.552     c-15.583-25.427-44.313-41.229-74.958-41.229s-59.375,15.802-74.917,41.177l-1.365,1.667     c-16.083,24.385-42.979,38.938-71.938,38.938c-47.667,0-86.448-38.781-86.448-86.448s38.781-86.438,86.729-86.438     c27.49-0.729,51.865-17.146,68.656-46.229c15.396-26.688,15.927-58.563,1.469-85.177l-0.771-2.406     c-5.219-11.479-7.865-23.354-7.865-35.302c0-47.479,37.969-84.667,86.448-84.667s86.448,37.188,86.448,84.667     c0,11.99-2.667,23.906-7.927,35.438l-0.667,2.177c-14.51,26.698-13.979,58.573,1.427,85.271     c16.781,29.021,41.208,45.438,68.792,46.229h0.292c47.583,0.063,86.302,38.844,86.302,86.438     C490.667,430.552,451.885,469.333,404.219,469.333z" data-original="#000000" class="active-path" data-old_color="#86afe1" fill="#86afe1"/>
		</g>
	</g>
</g></g> </svg>
